<svg width="25" height="26" viewBox="0 0 25 26" fill="none" xmlns="http://www.w3.org/2000/svg">
<path d="M25 6.99199V21.5488C25 24.0074 23.5585 26 21.7801 26H3.21994C1.44148 26 0 24.0046 0 21.5461V6.99199C0 4.53342 1.44148 2.5408 3.21994 2.5408H9.37634V1.11828C9.37634 0.49884 9.74005 0 10.1867 0C10.6333 0 10.997 0.501581 10.997 1.11828V5.35294C10.997 5.97238 10.6333 6.47122 10.1867 6.47122C9.74005 6.47122 9.37634 5.96964 9.37634 5.35294V4.02087H3.55691C2.26519 4.02087 1.21684 5.4708 1.21684 7.25785V21.2199C1.21684 23.007 2.26519 24.4541 3.55691 24.4541H21.5715C22.8632 24.4541 23.9115 23.007 23.9115 21.2199V7.25785C23.9115 5.4708 22.8632 4.02087 21.5715 4.02087H15.6263V5.35294C15.6263 5.97238 15.2626 6.47122 14.816 6.47122C14.3694 6.47122 14.0057 5.96964 14.0057 5.35294V1.11828C14.0057 0.501581 14.3694 0 14.816 0C15.2626 0 15.6263 0.501581 15.6263 1.11828V2.5408H21.7827C23.5585 2.5408 25 4.53342 25 6.99199Z" fill="#806135"/>
</svg>
