<svg width="12" height="12" viewBox="0 0 12 12" fill="none" xmlns="http://www.w3.org/2000/svg">
<path d="M11.0147 7.52467C11.3757 7.52467 11.6626 7.81579 11.6626 8.17105V9.97697C11.6626 10.6628 11.2471 11.2451 10.6536 11.5016C10.4508 11.5905 10.2332 11.6349 10.0007 11.6349H1.66679C0.746841 11.6398 0 10.8997 0 9.98191V1.66776C0 0.745066 0.746841 0 1.66679 0H5.66313C5.91043 0 6.11816 0.202303 6.11816 0.453947C6.11816 0.700658 5.91043 0.907895 5.66313 0.907895H1.92893C1.5283 0.907895 1.19692 1.23849 1.19692 1.63816V10.0855C1.19692 10.4901 1.5283 10.8158 1.92893 10.8158H9.63969C10.0403 10.8158 10.3667 10.4901 10.3667 10.0855V8.17105C10.3667 7.81579 10.6586 7.52467 11.0147 7.52467Z" fill="#525556"/>
<path d="M8.89758 0.256491C9.20917 0.0393861 9.64442 0.13807 9.82742 0.473597L11.242 3.05419C11.425 3.38971 11.1925 3.79925 10.8117 3.80912C9.46636 3.85353 6.98843 4.24827 6.7263 6.50814C6.69662 6.75978 6.48889 6.95222 6.2317 6.95222C5.9201 6.95222 5.6827 6.6759 5.74205 6.36998C5.94483 5.27952 6.74114 3.02458 9.81753 2.93577L8.71458 1.11011C8.54641 0.818991 8.62555 0.448926 8.89758 0.256491Z" fill="#525556"/>
</svg>
